ModelForces
version=1
nRows=4
nColumns=157
inDegrees=no

This file contains the forces exerted on a model during a simulation.

A force is a generalized force, meaning that it can be either a force (N) or a torque (Nm).

Units are S.I. units (second, meters, Newtons, ...)
Angles are in degrees.

endheader
time	glut_med1_r	glut_med2_r	glut_med3_r	glut_min1_r	glut_min2_r	glut_min3_r	semimem_r	semiten_r	bifemlh_r	bifemsh_r	sar_r	add_long_r	add_brev_r	add_mag1_r	add_mag2_r	add_mag3_r	tfl_r	pect_r	grac_r	glut_max1_r	glut_max2_r	glut_max3_r	iliacus_r	psoas_r	quad_fem_r	gem_r	peri_r	rect_fem_r	vas_med_r	vas_int_r	vas_lat_r	med_gas_r	lat_gas_r	soleus_r	tib_post_r	flex_dig_r	flex_hal_r	tib_ant_r	per_brev_r	per_long_r	per_tert_r	ext_dig_r	ext_hal_r	glut_med1_l	glut_med2_l	glut_med3_l	glut_min1_l	glut_min2_l	glut_min3_l	semimem_l	semiten_l	bifemlh_l	bifemsh_l	sar_l	add_long_l	add_brev_l	add_mag1_l	add_mag2_l	add_mag3_l	tfl_l	pect_l	grac_l	glut_max1_l	glut_max2_l	glut_max3_l	iliacus_l	psoas_l	quad_fem_l	gem_l	peri_l	rect_fem_l	vas_med_l	vas_int_l	vas_lat_l	med_gas_l	lat_gas_l	soleus_l	tib_post_l	flex_dig_l	flex_hal_l	tib_ant_l	per_brev_l	per_long_l	per_tert_l	ext_dig_l	ext_hal_l	ercspn_r	ercspn_l	intobl_r	intobl_l	extobl_r	extobl_l	femur_lat_meniscii_r.femur_lat_r.force.X	femur_lat_meniscii_r.femur_lat_r.force.Y	femur_lat_meniscii_r.femur_lat_r.force.Z	femur_lat_meniscii_r.femur_lat_r.torque.X	femur_lat_meniscii_r.femur_lat_r.torque.Y	femur_lat_meniscii_r.femur_lat_r.torque.Z	femur_lat_meniscii_r.meniscus_lat_r.force.X	femur_lat_meniscii_r.meniscus_lat_r.force.Y	femur_lat_meniscii_r.meniscus_lat_r.force.Z	femur_lat_meniscii_r.meniscus_lat_r.torque.X	femur_lat_meniscii_r.meniscus_lat_r.torque.Y	femur_lat_meniscii_r.meniscus_lat_r.torque.Z	femur_med_meniscii_r.femur_med_r.force.X	femur_med_meniscii_r.femur_med_r.force.Y	femur_med_meniscii_r.femur_med_r.force.Z	femur_med_meniscii_r.femur_med_r.torque.X	femur_med_meniscii_r.femur_med_r.torque.Y	femur_med_meniscii_r.femur_med_r.torque.Z	femur_med_meniscii_r.meniscus_med_r.force.X	femur_med_meniscii_r.meniscus_med_r.force.Y	femur_med_meniscii_r.meniscus_med_r.force.Z	femur_med_meniscii_r.meniscus_med_r.torque.X	femur_med_meniscii_r.meniscus_med_r.torque.Y	femur_med_meniscii_r.meniscus_med_r.torque.Z	femur_med_tibia_r.tibia_upper_r.force.X	femur_med_tibia_r.tibia_upper_r.force.Y	femur_med_tibia_r.tibia_upper_r.force.Z	femur_med_tibia_r.tibia_upper_r.torque.X	femur_med_tibia_r.tibia_upper_r.torque.Y	femur_med_tibia_r.tibia_upper_r.torque.Z	femur_med_tibia_r.femur_med_r.force.X	femur_med_tibia_r.femur_med_r.force.Y	femur_med_tibia_r.femur_med_r.force.Z	femur_med_tibia_r.femur_med_r.torque.X	femur_med_tibia_r.femur_med_r.torque.Y	femur_med_tibia_r.femur_med_r.torque.Z	femur_lat_tibia_r.tibia_upper_r.force.X	femur_lat_tibia_r.tibia_upper_r.force.Y	femur_lat_tibia_r.tibia_upper_r.force.Z	femur_lat_tibia_r.tibia_upper_r.torque.X	femur_lat_tibia_r.tibia_upper_r.torque.Y	femur_lat_tibia_r.tibia_upper_r.torque.Z	femur_lat_tibia_r.femur_lat_r.force.X	femur_lat_tibia_r.femur_lat_r.force.Y	femur_lat_tibia_r.femur_lat_r.force.Z	femur_lat_tibia_r.femur_lat_r.torque.X	femur_lat_tibia_r.femur_lat_r.torque.Y	femur_lat_tibia_r.femur_lat_r.torque.Z	aACL_R	pACL_R	aPCL_R	pPCL_R	aMCL_R	mMCL_R	pMCL_R	aLCL_R	mLCL_R	pLCL_R	ground_prescribedForce_fx	ground_prescribedForce_fy	ground_prescribedForce_fz	ground_prescribedForce_px	ground_prescribedForce_py	ground_prescribedForce_pz
      0.73037694	      7.54811873	      5.66586895	      6.06484147	      2.65898700	      3.17900185	      3.19281271	      6.62107446	      4.03802518	      7.02683361	      7.08096180	      0.00000000	      5.61339705	      4.14114036	      2.91898296	      2.45377357	      3.98753945	      3.81086883	      2.23875728	      1.55088706	      3.65614868	      5.55611735	      4.14750298	     22.64781421	     12.96709305	      3.62674576	      2.85435072	      4.09027392	     11.26079763	      8.06054490	      8.42158788	     10.90645188	      3.10647313	      2.06704476	      9.66265078	     13.74623133	      2.69955034	      2.90342265	     15.97510035	      3.91011207	      8.07705697	     11.03309771	      9.27965621	      1.99339791	      7.54811873	      5.66586895	      6.06484147	      2.65898700	      3.17900185	      3.19281271	      8.74549639	      4.08332453	      7.68310555	      7.21616312	      1.51977233	      5.61339705	      4.14114036	      2.91898296	      2.45377357	      3.98753945	      4.09707217	      2.23875728	      1.55873264	      3.65614868	      5.55611735	      4.14750298	     22.64781421	     12.96709305	      3.62674576	      2.85435072	      4.09027392	     10.66751048	      6.59282101	      7.56249606	      8.13172577	     13.95459908	      6.47944319	     31.08877071	     42.36015622	      2.59452434	      2.84525773	      8.45205428	      4.33420313	     12.44718855	      2.00592173	      5.35714796	      1.70068477	     25.00707303	     25.00707303	      9.00034007	      9.00034007	     26.80491457	     26.80491457	     45.45851744	     76.18308148	     16.82892180	     -8.82864887	      1.09200541	     18.90988748	    -45.45851744	    -76.18308148	    -16.82892180	      2.49851033	     -1.25802162	     -1.05928815	     30.32037417	     49.22944856	     17.04002264	     -5.90966950	     -0.79312148	     12.73686903	    -30.32037417	    -49.22944856	    -17.04002264	     -0.54661677	      0.65133141	     -0.83915816	     -1.44434822	     -5.31425461	     -0.91298273	     -0.09190962	      0.03488329	     -0.05762173	      1.44434822	      5.31425461	      0.91298273	     -0.24952717	     -0.04217845	      0.64024170	      0.00000000	      0.00000000	      0.00000000	      0.00000000	      0.00000000	      0.00000000	      0.00000000	      0.00000000	      0.00000000	      0.00000000	      0.00000000	      0.00000000	     50.92312146	     43.35910759	      0.00000000	      0.00000000	      0.00000000	     -0.36220608	     -0.44669694	      0.05471837	      0.00000000	      0.00000000	    106.25000000	    -28.47000000	      0.00000000	      0.03000000	     -0.03000000	      0.00000000
      0.73316533	      7.54802712	      5.66580581	      6.06477305	      2.65895863	      3.17897117	      3.19277404	      6.61835567	      4.03533969	      7.02788571	      7.04153082	      0.00000000	      5.61333377	      4.14109658	      2.91895068	      2.45374578	      3.98748942	      3.81087019	      2.23873324	      1.53856285	      3.65610798	      5.55605531	      4.14745581	     22.64769975	     12.96696438	      3.62670622	      2.85433223	      4.09019950	     11.25973958	      8.04931802	      8.41227147	     10.90535888	      3.08971659	      2.06375341	      9.64551955	     13.72379889	      2.72417963	      2.87706682	     15.97926784	      3.92744647	      8.10234915	     11.05406368	      9.20084214	      2.00603816	      7.54802712	      5.66580581	      6.06477305	      2.65895863	      3.17897117	      3.19277404	      8.74536274	      4.08327545	      7.68299444	      7.21608440	      1.51975619	      5.61333377	      4.14109658	      2.91895068	      2.45374578	      3.98748942	      4.09704124	      2.23873324	      1.55871580	      3.65610798	      5.55605531	      4.14745581	     22.64769975	     12.96696438	      3.62670622	      2.85433223	      4.09019950	     10.66735929	      6.59274588	      7.56240822	      8.13163179	     13.95424807	      6.47927989	     31.08820691	     42.35993643	      2.59231087	      2.84421967	      8.45194055	      4.33413481	     12.44701966	      2.00590176	      5.35819281	      1.70097149	     25.00680559	     25.00680559	      9.00023525	      9.00023525	     26.80482041	     26.80482041	     44.81853285	     75.24422230	     16.62312617	     -8.72035961	      1.07656636	     18.64319622	    -44.81853285	    -75.24422230	    -16.62312617	      2.46764921	     -1.24044497	     -1.04312376	     30.00243475	     48.73407252	     16.88999184	     -5.85940244	     -0.78483899	     12.60316715	    -30.00243475	    -48.73407252	    -16.88999184	     -0.54012249	      0.64435525	     -0.83006056	     -1.47164423	     -5.40858322	     -0.92925355	     -0.09354386	      0.03554593	     -0.05872166	      1.47164423	      5.40858322	      0.92925355	     -0.25397628	     -0.04297515	      0.65232451	      0.00000000	      0.00000000	      0.00000000	      0.00000000	      0.00000000	      0.00000000	      0.00000000	      0.00000000	      0.00000000	      0.00000000	      0.00000000	      0.00000000	     51.12919098	     43.57976994	      0.00000000	      0.00000000	      0.00000000	      0.12552051	      0.03679249	      0.70087471	      0.00000000	      0.00000000	    106.25000000	    -28.47000000	      0.00000000	      0.03000000	     -0.03000000	      0.00000000
      0.73360276	      7.54801304	      5.66579611	      6.06476254	      2.65895427	      3.17896645	      3.19276810	      6.61922196	      4.03564759	      7.02919846	      7.04185216	      0.01942616	      5.61332405	      4.14108985	      2.91894572	      2.45374151	      3.98748173	      3.81118386	      2.23872954	      1.53806007	      3.65610172	      5.55604578	      4.14744857	     22.64768216	     12.96694461	      3.62670014	      2.85432939	      4.09018807	     11.26121468	      8.05113101	      8.41444332	     10.90890131	      3.08965215	      2.06420167	      9.64516263	     13.72012341	      2.72806458	      2.87293536	     15.97917634	      3.93031907	      8.10663006	     11.05649094	      9.18842333	      2.00802006	      7.54801304	      5.66579611	      6.06476254	      2.65895427	      3.17896645	      3.19276810	      8.74534221	      4.08326790	      7.68297737	      7.21607231	      1.51975371	      5.61332405	      4.14108985	      2.91894572	      2.45374151	      3.98748173	      4.09703649	      2.23872954	      1.55871321	      3.65610172	      5.55604578	      4.14744857	     22.64768216	     12.96694461	      3.62670014	      2.85432939	      4.09018807	     10.66733607	      6.59273433	      7.56239472	      8.13161735	     13.95419413	      6.47925479	     31.08812029	     42.35990266	      2.59196268	      2.84405672	      8.45192308	      4.33412431	     12.44699371	      2.00589870	      5.35835733	      1.70101659	     25.00676450	     25.00676450	      9.00021914	      9.00021914	     26.80480594	     26.80480594	     44.83104715	     75.25739665	     16.62970939	     -8.72340414	      1.07685055	     18.64842846	    -44.83104715	    -75.25739665	    -16.62970939	      2.46819025	     -1.24078823	     -1.04347185	     30.01542731	     48.74972852	     16.89551311	     -5.86132039	     -0.78516155	     12.60858772	    -30.01542731	    -48.74972852	    -16.89551311	     -0.54029729	      0.64462408	     -0.83040420	     -1.46908462	     -5.39944321	     -0.92769229	     -0.09338565	      0.03548383	     -0.05861769	      1.46908462	      5.39944321	      0.92769229	     -0.25355063	     -0.04290055	      0.65119016	      0.00000000	      0.00000000	      0.00000000	      0.00000000	      0.00000000	      0.00000000	      0.00000000	      0.00000000	      0.00000000	      0.00000000	      0.00000000	      0.00000000	     51.13077494	     43.58294291	      0.00000000	      0.00000000	      0.00000000	      0.11868096	      0.03043573	      0.69080878	      0.00000000	      0.00000000	    106.25000000	    -28.47000000	      0.00000000	      0.03000000	     -0.03000000	      0.00000000
      0.73392653	      7.54800267	      5.66578897	      6.06475480	      2.65895106	      3.17896298	      3.19276372	      6.61976331	      4.03582022	      7.03010029	      7.04185696	      0.76447991	      5.61331689	      4.14108489	      2.91894206	      2.45373837	      3.98747607	      3.81139213	      2.23872682	      1.53769868	      3.65609712	      5.55603875	      4.14744323	     22.64766921	     12.96693005	      3.62669567	      2.85432729	      4.09017965	     11.26218711	      8.05215215	      8.41572387	     10.91113951	      3.08950138	      2.06448416	      9.64485078	     13.71735862	      2.73093874	      2.86986974	     15.97913118	      3.93243892	      8.10981321	     11.05826077	      9.17926900	      2.00950399	      7.54800267	      5.66578897	      6.06475480	      2.65895106	      3.17896298	      3.19276372	      8.74532708	      4.08326235	      7.68296480	      7.21606340	      1.51975188	      5.61331689	      4.14108489	      2.91894206	      2.45373837	      3.98747607	      4.09703298	      2.23872682	      1.55871131	      3.65609712	      5.55603875	      4.14744323	     22.64766921	     12.96693005	      3.62669567	      2.85432729	      4.09017965	     10.66731896	      6.59272583	      7.56238478	      8.13160672	     13.95415440	      6.47923631	     31.08805648	     42.35987779	      2.59170480	      2.84393609	      8.45191021	      4.33411658	     12.44697459	      2.00589644	      5.35847921	      1.70105000	     25.00673423	     25.00673423	      9.00020728	      9.00020728	     26.80479528	     26.80479528	     44.85693191	     75.29674074	     16.64330565	     -8.72999634	      1.07746016	     18.65921206	    -44.85693191	    -75.29674074	    -16.64330565	      2.46963098	     -1.24151564	     -1.04410411	     30.03790390	     48.78532698	     16.90878778	     -5.86598057	     -0.78575201	     12.61802968	    -30.03790390	    -48.78532698	    -16.90878778	     -0.54067188	      0.64510438	     -0.83102554	     -1.46822748	     -5.39645118	     -0.92719539	     -0.09333343	      0.03546299	     -0.05858239	      1.46822748	      5.39645118	      0.92719539	     -0.25341717	     -0.04287570	      0.65081044	      0.00000000	      0.00000000	      0.00000000	      0.00000000	      0.00000000	      0.00000000	      0.00000000	      0.00000000	      0.00000000	      0.00000000	      0.00000000	      0.00000000	     51.12074603	     43.57351236	      0.00000000	      0.00000000	      0.00000000	      0.09714529	      0.00922544	      0.66532717	      0.00000000	      0.00000000	    106.25000000	    -28.47000000	      0.00000000	      0.03000000	     -0.03000000	      0.00000000
